<svg width="460" height="100" viewBox="0 0 460 100" fill="none" xmlns="http://www.w3.org/2000/svg">
<g clip-path="url(#clip0_611_31749)">
<path d="M98.367 14.4947H122.593V77.7731H135.285V14.4947H159.612V3.59814H98.2585L98.367 14.4947Z" fill="black"/>
<path d="M151.23 24.7612L168.158 77.6717H181.697L193.542 41.1602L205.286 77.6717H218.825L235.854 24.7612H222.525L211.737 62.0113L200.21 24.7612H186.881L175.354 62.0113L164.566 24.7612H151.237H151.23Z" fill="black"/>
<path d="M247.95 15.7688C252.287 15.7688 255.777 12.1705 255.777 7.83357C255.777 3.49665 252.287 0 247.95 0C243.613 0 240.124 3.48987 240.124 7.83357C240.124 12.1773 243.613 15.7688 247.95 15.7688ZM241.499 24.7611V77.78H254.191V24.7611H241.499Z" fill="black"/>
<path d="M266.463 0V77.78H279.156V0H266.463Z" fill="black"/>
<path d="M297.54 15.7688C301.877 15.7688 305.367 12.1705 305.367 7.83357C305.367 3.49665 301.877 0 297.54 0C293.203 0 289.713 3.48987 289.713 7.83357C289.713 12.1773 293.203 15.7688 297.54 15.7688ZM291.089 24.7611V77.78H303.781V24.7611H291.089Z" fill="black"/>
<path d="M313.309 49.9492C313.309 65.718 323.677 76.1944 336.789 76.1944C344.616 76.1944 350.756 72.2776 354.029 66.1381V74.3918C354.029 85.1867 347.049 89.2051 339.432 89.2051C333.401 89.2051 327.906 86.3455 325.683 79.4674L313.628 82.5371C316.799 93.0135 325.683 100 339.439 100C355.73 100 366.728 89.7337 366.728 74.3918V24.7611H354.036V33.8619C350.756 27.7224 344.623 23.8057 336.796 23.8057C323.677 23.8057 313.316 34.1736 313.316 49.9424L313.309 49.9492ZM326.11 49.9492C326.11 40.5299 332.141 34.709 339.649 34.709C347.157 34.709 353.08 40.5299 353.08 49.9492C353.08 59.3684 347.049 65.1894 339.649 65.1894C332.249 65.1894 326.11 59.3684 326.11 49.9492Z" fill="black"/>
<path d="M376.391 77.7799V3.59814H389.083V32.3845C391.834 27.3021 396.91 23.7039 404.418 23.7039C417.429 23.7039 424.09 32.6962 424.09 45.8222V77.7799H411.398V47.7264C411.398 39.7911 407.8 34.8172 400.61 34.8172C393.42 34.8172 389.083 39.7911 389.083 47.7264V77.7799H376.391Z" fill="black"/>
<path d="M427.933 35.0274H435.969V62.1196C435.969 72.7044 442 78.8371 452.152 78.8371C455.011 78.8371 457.546 78.3085 459.45 77.6716V68.2523C458.501 68.4624 457.546 68.5708 456.38 68.5708C451.725 68.5708 448.763 66.4565 448.763 60.5271V35.0274H459.66V24.8695H448.763V11.0049H435.963V24.8695H427.926V35.0274H427.933Z" fill="black"/>
</g>
<path d="M72.508 4.06691L0 4.06689C-4.99756e-06 32.6496 24.2656 40.3716 36.3984 40.6597L72.508 4.06691Z" fill="black"/>
<path d="M8.39233e-05 77.9302L72.5081 77.9302C72.5081 48.8182 48.2424 40.9532 36.1096 40.6597L8.39233e-05 77.9302Z" fill="black"/>
<defs>
<clipPath id="clip0_611_31749">
<rect width="361.408" height="100" fill="white" transform="translate(98.2585)"/>
</clipPath>
</defs>
</svg>
